# Blender v2.80 (sub 74) OBJ File: ''
# www.blender.org
mtllib tank.mtl
o Cube.003
v -1.765152 1.657256 -2.205538
v 1.765152 1.657256 -2.205538
v 1.761653 1.017504 -2.590169
v -1.768650 1.017504 -2.590169
v -1.765152 1.560540 1.705986
v 1.765152 1.560540 1.705986
v -1.765152 0.964680 2.096007
v 1.765152 0.964680 2.096007
v -0.198125 2.188882 3.075947
v -0.198125 2.579971 2.987705
v -0.161337 2.153586 1.050845
v -0.161338 1.833192 1.069450
v 0.161337 1.833192 1.069450
v 0.161337 2.153586 1.050845
v 0.198125 2.579971 2.987705
v 0.198125 2.188882 3.075947
v -1.523574 -0.012215 -2.092031
v -1.523574 -0.012215 1.663092
v -1.523573 0.988466 1.976345
v -1.523573 0.988466 -2.405285
v -1.523574 1.505385 1.659731
v -1.523574 1.580588 -2.092031
v 0.918704 -0.012215 -2.092031
v 1.918684 -0.012215 -2.092031
v 1.918684 -0.012215 1.663092
v 0.918704 -0.012215 1.663092
v 0.918703 0.988466 -2.405285
v 0.918704 1.580588 -2.092031
v 1.918684 1.580588 -2.092031
v 1.918684 0.988466 -2.405285
v -1.931595 -0.012215 1.663092
v -0.931615 -0.012215 1.663092
v -0.931615 0.988466 1.976345
v -1.931595 0.988466 1.976345
v 0.918704 1.517205 1.663093
v 1.918684 1.517205 1.663093
v 1.918684 0.988466 1.976345
v 0.918703 0.988466 1.976345
v -0.931615 1.517205 1.663093
v -1.931595 1.517205 1.663093
v -1.931595 1.580588 -2.092031
v -0.931615 1.580588 -2.092031
v -0.931615 -0.012215 -2.092031
v -1.931595 -0.012215 -2.092031
v -1.931595 0.988466 -2.405285
v -0.931615 0.988466 -2.405285
v 1.510662 0.988466 -2.405285
v 1.510662 1.580588 -2.092031
v 1.510662 1.505385 1.659731
v 1.510662 0.988466 1.976345
v 1.510662 -0.012215 -2.092031
v 1.510662 -0.012215 1.663092
v -1.268017 0.872650 2.609399
v -1.268017 1.609978 2.124108
v -1.268017 1.823594 -2.447185
v -1.268017 0.653409 -3.038337
v 1.268017 1.823594 -2.447185
v 1.268017 0.653409 -3.038337
v 1.268017 1.609978 2.124108
v 1.268017 0.872650 2.609399
v -0.924475 1.590003 1.481532
v -0.776189 2.554087 1.061072
v -0.776189 2.554087 -0.703875
v -0.924475 1.697752 -0.703876
v 0.776189 2.554087 -0.703875
v 0.924475 1.697752 -0.703876
v 0.776189 2.554087 1.061072
v 0.924475 1.590003 1.481532
v -1.460052 -0.012215 -2.092031
v -1.460051 0.988466 -2.405285
v -1.460051 0.988466 1.976345
v -1.460052 -0.012215 1.663092
v -1.460052 1.580588 -2.092031
v -1.460052 1.505385 1.659731
v 1.447140 0.988466 -2.405285
v 1.447140 0.988466 1.976345
v 1.447140 1.505385 1.659731
v 1.447140 1.580588 -2.092031
v 1.447140 -0.012215 -2.092031
v 1.447140 -0.012215 1.663092
v 0.918704 0.010528 -2.064891
v 0.918704 0.010528 1.635953
v 1.918684 0.010528 1.635953
v 1.918684 0.010528 -2.064891
v 0.918703 0.984883 -2.374081
v 1.918684 0.984883 -2.374081
v 1.918684 1.561428 -2.064891
v 0.918704 1.561428 -2.064891
v -1.931595 0.010528 1.635953
v -1.931595 0.984883 1.945141
v -0.931615 0.984883 1.945141
v -0.931615 0.010528 1.635953
v 1.918684 1.498045 1.635953
v 0.918704 1.498045 1.635953
v 1.918684 0.984883 1.945141
v 0.918703 0.984883 1.945141
v -1.931595 1.498045 1.635953
v -0.931615 1.498045 1.635953
v -1.931595 1.561428 -2.064891
v -0.931615 1.561428 -2.064891
v -0.931615 0.010528 -2.064891
v -0.931615 0.984883 -2.374081
v -1.931595 0.984883 -2.374081
v -1.931595 0.010528 -2.064891
vt 0.468750 0.414062
vt 0.750000 0.414062
vt 0.750000 0.484375
vt 0.468750 0.484375
vt 0.750000 0.414062
vt 0.468750 0.414062
vt 0.468750 0.195312
vt 0.750000 0.195312
vt 0.750000 0.195312
vt 0.468750 0.195312
vt 0.468750 0.125000
vt 0.750000 0.125000
vt 0.085938 0.945312
vt 0.117188 0.945312
vt 0.117188 0.757812
vt 0.085938 0.757812
vt 0.054688 0.757812
vt 0.023438 0.757812
vt 0.023438 0.945312
vt 0.054688 0.945312
vt 0.046875 0.953125
vt 0.046875 1.000000
vt -0.000000 1.000000
vt 0.000000 0.953125
vt 0.085938 0.757812
vt 0.054688 0.757812
vt 0.054688 0.945312
vt 0.085938 0.945312
vt 0.296875 0.007812
vt 0.031250 0.007812
vt 0.007812 0.085938
vt 0.312500 0.085938
vt 0.023438 0.117188
vt 0.296875 0.117188
vt 0.750000 0.859375
vt 0.750000 1.000000
vt 0.875000 1.000000
vt 0.875000 0.859375
vt 0.750000 0.796875
vt 0.750000 1.000000
vt 0.875000 1.000000
vt 0.875000 0.796875
vt 0.875000 0.796875
vt 0.750000 0.796875
vt 0.750000 1.000000
vt 0.875000 1.000000
vt 0.750000 0.375000
vt 0.875000 0.375000
vt 0.875000 0.859375
vt 0.875000 1.000000
vt 0.750000 1.000000
vt 0.750000 0.859375
vt 0.875000 0.796875
vt 0.875000 1.000000
vt 0.750000 1.000000
vt 0.750000 0.796875
vt 0.875000 0.859375
vt 0.750000 0.859375
vt 0.750000 1.000000
vt 0.875000 1.000000
vt 0.875000 1.000000
vt 0.875000 0.375000
vt 0.750000 0.375000
vt 0.750000 1.000000
vt 0.750000 0.796875
vt 0.875000 0.796875
vt 0.875000 1.000000
vt 0.750000 1.000000
vt 0.750000 0.859375
vt 0.875000 0.859375
vt 0.312500 0.085938
vt 0.296875 0.117188
vt 0.023438 0.117188
vt 0.007812 0.085938
vt 0.296875 0.007812
vt 0.031250 0.007812
vt 0.382812 0.734375
vt 0.390625 0.648438
vt 0.484375 0.648438
vt 0.492188 0.734375
vt 0.375000 0.554688
vt 0.375000 0.750000
vt -0.000000 0.750000
vt 0.000000 0.554688
vt 0.492188 0.507812
vt 0.484375 0.625000
vt 0.390625 0.625000
vt 0.375000 0.507812
vt 0.375000 0.125000
vt 0.375000 0.281250
vt 0.000000 0.281250
vt 0.000000 0.125000
vt 0.375000 0.554688
vt 0.000000 0.554688
vt 0.695312 0.750000
vt 0.500000 0.750000
vt 0.500000 1.000000
vt 0.695312 1.000000
vt 0.695312 0.750000
vt 0.500000 0.750000
vt 0.500000 1.000000
vt 0.695312 1.000000
vt 0.695312 0.750000
vt 0.500000 0.750000
vt 0.500000 1.000000
vt 0.695312 1.000000
vt 0.500000 0.796875
vt 0.468750 1.000000
vt 0.156250 1.000000
vt 0.125000 0.796875
vt 0.570312 0.500000
vt 0.750000 0.500000
vt 0.750000 0.750000
vt 0.570312 0.750000
vt 0.296875 0.007812
vt 0.312500 0.085938
vt 0.007812 0.085938
vt 0.031250 0.007812
vt 0.296875 0.117188
vt 0.023438 0.117188
vt 0.312500 0.085938
vt 0.007812 0.085938
vt 0.023438 0.117188
vt 0.296875 0.117188
vt 0.296875 0.007812
vt 0.031250 0.007812
vt 0.750000 1.000000
vt 0.750000 0.375000
vt 0.875000 0.375000
vt 0.875000 1.000000
vt 0.750000 0.859375
vt 0.875000 0.859375
vt 0.875000 1.000000
vt 0.750000 1.000000
vt 0.750000 0.796875
vt 0.875000 0.796875
vt 0.875000 1.000000
vt 0.750000 1.000000
vt 0.875000 0.796875
vt 0.875000 1.000000
vt 0.750000 1.000000
vt 0.750000 0.796875
vt 0.875000 0.375000
vt 0.750000 0.375000
vt 0.875000 0.859375
vt 0.750000 0.859375
vt 0.750000 1.000000
vt 0.875000 1.000000
vt 0.875000 0.796875
vt 0.750000 0.796875
vt 0.750000 1.000000
vt 0.875000 1.000000
vt 0.875000 0.859375
vt 0.875000 1.000000
vt 0.750000 1.000000
vt 0.750000 0.859375
vt 0.875000 1.000000
vt 0.750000 1.000000
vt 0.750000 0.375000
vt 0.875000 0.375000
vt 0.750000 0.796875
vt 0.750000 1.000000
vt 0.875000 1.000000
vt 0.875000 0.796875
vt 0.750000 0.859375
vt 0.875000 0.859375
vt 0.750000 1.000000
vt 0.875000 1.000000
vt 0.875000 0.375000
vt 0.750000 0.375000
vn 0.0000 0.5153 -0.8570
vn 0.0000 0.9997 0.0247
vn 0.0000 0.5477 0.8367
vn -0.9998 -0.0027 -0.0181
vn 0.9998 -0.0027 -0.0181
vn 0.0000 0.2201 0.9755
vn 0.0000 0.9766 -0.2150
vn -1.0000 0.0000 0.0000
vn 0.0000 0.4676 -0.8839
vn 0.0000 -0.2987 -0.9543
vn 0.0000 -0.2987 0.9543
vn 0.0000 0.9999 0.0169
vn 0.0000 0.5097 0.8603
vn 1.0000 0.0000 0.0000
vn 0.0000 0.4509 -0.8926
vn 0.0000 0.5498 0.8353
vn 0.0000 0.9989 0.0467
vn -0.9868 0.1618 0.0044
vn 0.0000 0.0000 -1.0000
vn 0.9868 0.1618 0.0044
vn 0.0000 0.3998 0.9166
vn 0.0000 1.0000 0.0000
vn 0.0000 -0.4726 0.8813
vn 0.0000 0.3025 0.9532
vn 0.0000 0.3025 -0.9532
vn 0.0000 -0.9999 -0.0171
vn 0.0000 -0.5161 -0.8565
usemtl Default_OBJ
s off
f 1/1/1 2/2/1 3/3/1 4/4/1
f 5/5/2 6/6/2 2/7/2 1/8/2
f 7/9/3 8/10/3 6/11/3 5/12/3
s 1
f 9/13/4 10/14/4 11/15/4 12/16/4
f 13/17/5 14/18/5 15/19/5 16/20/5
f 16/21/6 15/22/6 10/23/6 9/24/6
f 14/25/7 11/26/7 10/27/7 15/28/7
f 17/29/8 18/30/8 19/31/8 20/32/8
f 20/32/8 19/31/8 21/33/8 22/34/8
f 27/35/9 28/36/9 29/37/9 30/38/9
f 23/39/10 27/40/10 30/41/10 24/42/10
f 31/43/11 32/44/11 33/45/11 34/46/11
f 29/37/12 28/36/12 35/47/12 36/48/12
f 37/49/13 36/50/13 35/51/13 38/52/13
f 25/53/11 37/54/11 38/55/11 26/56/11
f 34/57/13 33/58/13 39/59/13 40/60/13
f 41/61/12 40/62/12 39/63/12 42/64/12
f 43/65/10 44/66/10 45/67/10 46/68/10
f 46/69/9 45/70/9 41/61/9 42/64/9
f 47/71/14 48/72/14 49/73/14 50/74/14
f 51/75/14 47/71/14 50/74/14 52/76/14
f 53/77/8 54/78/8 55/79/8 56/80/8
f 56/81/15 55/82/15 57/83/15 58/84/15
f 58/85/14 57/86/14 59/87/14 60/88/14
f 60/89/16 59/90/16 54/91/16 53/92/16
f 57/93/17 55/94/17 54/91/17 59/90/17
f 61/95/18 62/96/18 63/97/18 64/98/18
f 64/99/19 63/100/19 65/101/19 66/102/19
f 66/103/20 65/104/20 67/105/20 68/106/20
f 68/107/21 67/108/21 62/109/21 61/110/21
f 65/111/22 63/112/22 62/113/22 67/114/22
f 69/115/14 70/116/14 71/117/14 72/118/14
f 70/116/14 73/119/14 74/120/14 71/117/14
f 75/121/8 76/122/8 77/123/8 78/124/8
f 79/125/8 80/126/8 76/122/8 75/121/8
f 81/127/22 82/128/22 83/129/22 84/130/22
f 85/131/23 86/132/23 87/133/23 88/134/23
f 81/135/24 84/136/24 86/137/24 85/138/24
f 89/139/25 90/140/25 91/141/25 92/142/25
f 87/133/26 93/143/26 94/144/26 88/134/26
f 95/145/27 96/146/27 94/147/27 93/148/27
f 83/149/25 82/150/25 96/151/25 95/152/25
f 90/153/27 97/154/27 98/155/27 91/156/27
f 99/157/26 100/158/26 98/159/26 97/160/26
f 101/161/24 102/162/24 103/163/24 104/164/24
f 102/165/23 100/158/23 99/157/23 103/166/23
f 101/167/22 104/168/22 89/169/22 92/170/22
